# File created by Blade
# Date/Time:  Mon Sep 22 16:09:39 2014
# Frame Rate: 120.000 fps
#------------------------------------------------------
:FULLY-SPECIFIED
:DEGREES
3607
root 1.720814 36.854077 4.022477 6.396319 -10.333579 1.098945
RightUpLeg 4.026370 -0.063912 -1.368428
RightLeg -6.263028 -0.000000 0.000000
RightFoot -13.619323 -14.605481 14.790809
RightToeBase 12.300021 -0.000000 -0.000000
LeftUpLeg 4.296543 7.427944 2.653528
LeftLeg -4.064360 -0.000000 0.000000
LeftFoot -11.771133 14.178593 -19.341184
LeftToeBase 6.745715 -0.000000 -0.000000
Spine -8.710904 -20.025453 2.245028
RightShoulder -8.946137 -32.247548 -3.409044
RightArm 18.168731 -31.082049 68.628328
RightForeArm 83.547941 0.000000 100.718260
RightHand -10.928068 -0.000000 -11.457954
RightHandThumb1 -24.326973 -0.000000 -32.862282
LeftShoulder -28.962676 41.195935 -7.751671
LeftArm 35.892350 8.839181 -76.336249
LeftForeArm 17.763256 -0.000000 28.224770
LeftHand -13.479266 -0.000000 -7.342078
LeftHandThumb1 -26.253704 0.000000 33.147579
Head 14.201488 3.091577 8.655298
3608
root 1.731963 36.853627 4.029109 6.371603 -10.144905 1.098690
RightUpLeg 4.085727 -0.052478 -1.368021
RightLeg -6.259973 -0.000000 0.000000
RightFoot -13.675111 -14.743029 14.888375
RightToeBase 12.222027 -0.000000 -0.000000
LeftUpLeg 4.341005 7.411299 2.665446
LeftLeg -4.143929 -0.000000 0.000000
LeftFoot -11.673899 14.027458 -19.285098
LeftToeBase 6.691471 -0.000000 -0.000000
Spine -8.684060 -19.920794 2.298782
RightShoulder -8.720725 -32.418952 -3.684293
RightArm 18.137408 -31.078868 68.550164
RightForeArm 83.320318 -0.000000 100.975838
RightHand -11.077008 -0.000000 -10.666274
RightHandThumb1 -24.326973 -0.000000 -32.862282
LeftShoulder -28.827812 41.309680 -7.714656
LeftArm 35.805100 8.880067 -76.337127
LeftForeArm 17.247683 -0.000000 28.712595
LeftHand -13.456811 -0.000000 -6.863522
LeftHandThumb1 -26.253704 0.000000 33.147579
Head 14.025904 3.024551 8.620380
3609
root 1.742900 36.855271 4.035719 6.353090 -9.967325 1.115663
RightUpLeg 4.127127 0.024484 -1.377204
RightLeg -6.246384 -0.000000 0.000000
RightFoot -13.750380 -14.967279 14.964603
RightToeBase 12.226518 -0.000000 -0.000000
LeftUpLeg 4.358357 7.449970 2.658579
LeftLeg -4.190426 -0.000000 0.000000
LeftFoot -11.558883 13.850174 -19.198607
LeftToeBase 6.706875 -0.000000 -0.000000
Spine -8.669473 -19.838766 2.310696
RightShoulder -8.541697 -32.625408 -3.883870
RightArm 18.183458 -30.988125 68.339165
RightForeArm 83.043103 -0.000000 101.468141
RightHand -10.988780 -0.000000 -11.096077
RightHandThumb1 -24.326973 -0.000000 -32.862282
LeftShoulder -28.734506 41.415486 -7.672814
LeftArm 35.765121 8.973531 -76.276133
LeftForeArm 16.877770 -0.000000 29.094182
LeftHand -13.381650 0.000000 -6.650536
LeftHandThumb1 -26.253704 0.000000 33.147579
Head 13.886801 2.865703 8.642925
3610
root 1.755864 36.859673 4.039338 6.367795 -9.813482 1.144337
RightUpLeg 4.102858 0.061351 -1.400476
RightLeg -6.190348 -0.000000 0.000000
RightFoot -13.819753 -15.161304 15.025652
RightToeBase 12.204287 -0.000000 -0.000000
LeftUpLeg 4.340165 7.439492 2.634681
LeftLeg -4.240877 -0.000000 0.000000
LeftFoot -11.439477 13.700987 -19.210109
LeftToeBase 6.678187 -0.000000 -0.000000
Spine -8.708350 -19.750652 2.339525
RightShoulder -8.252073 -32.745451 -4.195911
RightArm 18.004210 -30.815807 68.390638
RightForeArm 83.047517 -0.000000 102.185499
RightHand -10.813730 -0.000000 -12.369589
RightHandThumb1 -24.326973 -0.000000 -32.862282
LeftShoulder -28.637935 41.518078 -7.651546
LeftArm 35.722638 9.076809 -76.179999
LeftForeArm 16.552244 -0.000000 29.450368
LeftHand -13.345117 -0.000000 -6.480460
LeftHandThumb1 -26.253704 0.000000 33.147579
Head 13.806666 2.762414 8.665032
3611
root 1.767007 36.865197 4.043099 6.366530 -9.668515 1.200450
RightUpLeg 4.083325 0.128141 -1.447133
RightLeg -6.118688 -0.000000 0.000000
RightFoot -13.912471 -15.357097 15.106884
RightToeBase 12.158681 -0.000000 -0.000000
LeftUpLeg 4.312099 7.433434 2.588137
LeftLeg -4.244822 -0.000000 0.000000
LeftFoot -11.323803 13.539483 -19.225756
LeftToeBase 6.651331 -0.000000 -0.000000
Spine -8.738079 -19.691213 2.303513
RightShoulder -7.907223 -32.876216 -4.534110
RightArm 17.700794 -30.643015 68.665956
RightForeArm 82.869656 -0.000000 102.798086
RightHand -10.027023 -0.000000 -13.629179
RightHandThumb1 -24.326973 -0.000000 -32.862282
LeftShoulder -28.521686 41.588016 -7.574878
LeftArm 35.633068 9.141827 -76.114723
LeftForeArm 16.189444 -0.000000 29.749787
LeftHand -13.231222 -0.000000 -6.285534
LeftHandThumb1 -26.253704 0.000000 33.147579
Head 13.780472 2.538737 8.701813
3612
root 1.781877 36.871530 4.043621 6.354262 -9.530259 1.270910
RightUpLeg 4.063131 0.161973 -1.510814
RightLeg -6.049766 -0.000000 0.000000
RightFoot -13.968646 -15.570357 15.090218
RightToeBase 12.111707 -0.000000 -0.000000
LeftUpLeg 4.259484 7.407684 2.516376
LeftLeg -4.194792 -0.000000 0.000000
LeftFoot -11.224015 13.423356 -19.210593
LeftToeBase 6.569355 -0.000000 -0.000000
Spine -8.743528 -19.617140 2.236604
RightShoulder -7.622394 -32.950528 -4.852594
RightArm 17.522648 -30.461991 68.840479
RightForeArm 82.657516 -0.000000 103.209892
RightHand -9.718179 -0.000000 -14.622079
RightHandThumb1 -24.326973 -0.000000 -32.862282
LeftShoulder -28.396644 41.640349 -7.481888
LeftArm 35.594176 9.236305 -76.022823
LeftForeArm 16.010561 0.000000 29.989614
LeftHand -13.302135 0.000000 -6.066896
LeftHandThumb1 -26.253704 0.000000 33.147579
Head 13.755261 2.284255 8.701843
3613
root 1.792232 36.879189 4.044401 6.336662 -9.353097 1.351307
RightUpLeg 4.047219 0.132315 -1.574030
RightLeg -5.962173 -0.000000 0.000000
RightFoot -14.044331 -15.727088 15.118440
RightToeBase 12.085804 -0.000000 -0.000000
LeftUpLeg 4.184667 7.345724 2.445904
LeftLeg -4.103464 -0.000000 0.000000
LeftFoot -11.140381 13.299251 -19.217535
LeftToeBase 6.576096 -0.000000 -0.000000
Spine -8.745773 -19.607824 2.147215
RightShoulder -7.414531 -33.040315 -5.109424
RightArm 17.471443 -30.328315 68.982755
RightForeArm 82.585242 0.000000 103.441082
RightHand -9.429868 0.000000 -15.403478
RightHandThumb1 -24.326973 -0.000000 -32.862282
LeftShoulder -28.350508 41.671889 -7.422894
LeftArm 35.598957 9.285217 -75.924101
LeftForeArm 15.836164 -0.000000 30.148356
LeftHand -13.191562 -0.000000 -6.159627
LeftHandThumb1 -26.253704 0.000000 33.147579
Head 13.760956 2.066407 8.754061
3614
root 1.800834 36.887604 4.044147 6.304642 -9.190762 1.428233
RightUpLeg 4.041958 0.110609 -1.632885
RightLeg -5.872938 -0.000000 0.000000
RightFoot -14.111201 -15.888835 15.165175
RightToeBase 11.999005 -0.000000 -0.000000
LeftUpLeg 4.120907 7.325767 2.379101
LeftLeg -4.001090 -0.000000 0.000000
LeftFoot -11.051259 13.161745 -19.212695
LeftToeBase 6.580216 -0.000000 -0.000000
Spine -8.729805 -19.582034 2.062136
RightShoulder -7.226380 -33.088642 -5.364156
RightArm 17.390531 -30.247403 69.237438
RightForeArm 82.593092 0.000000 103.516671
RightHand -9.175829 -0.000000 -15.984833
RightHandThumb1 -24.326973 -0.000000 -32.862282
LeftShoulder -28.311298 41.705776 -7.408095
LeftArm 35.642976 9.353519 -75.774611
LeftForeArm 16.048355 -0.000000 30.291822
LeftHand -13.190395 -0.000000 -6.222618
LeftHandThumb1 -26.253704 0.000000 33.147579
Head 13.783682 1.925692 8.805496
3615
root 1.807652 36.894282 4.043046 6.268790 -9.022777 1.509832
RightUpLeg 4.051691 0.055252 -1.695556
RightLeg -5.804870 -0.000000 0.000000
RightFoot -14.185381 -16.054707 15.111028
RightToeBase 12.126898 -0.000000 -0.000000
LeftUpLeg 4.053831 7.216600 2.310531
LeftLeg -3.887842 -0.000000 0.000000
LeftFoot -11.001189 13.091270 -19.229495
LeftToeBase 6.553670 -0.000000 -0.000000
Spine -8.687818 -19.575257 1.928088
RightShoulder -7.135218 -33.002298 -5.501787
RightArm 17.295892 -30.299612 69.406249
RightForeArm 82.563413 0.000000 103.444062
RightHand -9.076679 0.000000 -16.289336
RightHandThumb1 -24.326973 -0.000000 -32.862282
LeftShoulder -28.244309 41.666915 -7.296351
LeftArm 35.610341 9.369005 -75.711835
LeftForeArm 16.188368 -0.000000 30.387861
LeftHand -13.045512 -0.000000 -6.497844
LeftHandThumb1 -26.253704 0.000000 33.147579
Head 13.758682 1.649192 8.854054
3616
root 1.812918 36.900867 4.040018 6.217393 -8.850341 1.590586
RightUpLeg 4.081513 -0.001393 -1.756620
RightLeg -5.750310 -0.000000 0.000000
RightFoot -14.230872 -16.177925 15.118900
RightToeBase 12.103240 -0.000000 -0.000000
LeftUpLeg 4.002290 7.068549 2.247194
LeftLeg -3.780704 -0.000000 0.000000
LeftFoot -10.958053 13.047197 -19.274291
LeftToeBase 6.555764 -0.000000 -0.000000
Spine -8.626984 -19.566105 1.795115
RightShoulder -7.011303 -33.003735 -5.580632
RightArm 17.244885 -30.302221 69.570865
RightForeArm 82.509353 0.000000 103.362515
RightHand -9.136583 0.000000 -16.511034
RightHandThumb1 -24.326973 -0.000000 -32.862282
LeftShoulder -28.150451 41.613510 -7.186529
LeftArm 35.587587 9.346515 -75.653969
LeftForeArm 16.354546 -0.000000 30.443956
LeftHand -13.076999 -0.000000 -6.722039
LeftHandThumb1 -26.253704 0.000000 33.147579
Head 13.748279 1.414028 8.880397
3617
root 1.814860 36.906424 4.037072 6.162453 -8.666715 1.658407
RightUpLeg 4.126914 -0.060144 -1.799251
RightLeg -5.712292 -0.000000 0.000000
RightFoot -14.270122 -16.289655 15.155576
RightToeBase 12.034905 -0.000000 -0.000000
LeftUpLeg 3.967309 6.970234 2.197121
LeftLeg -3.693998 -0.000000 0.000000
LeftFoot -10.899213 12.995531 -19.267945
LeftToeBase 6.517391 -0.000000 -0.000000
Spine -8.559315 -19.553070 1.666947
RightShoulder -6.844807 -32.972120 -5.601127
RightArm 17.057945 -30.315280 69.777747
RightForeArm 82.560158 -0.000000 103.344927
RightHand -9.247500 -0.000000 -16.783506
RightHandThumb1 -24.326973 -0.000000 -32.862282
LeftShoulder -28.111909 41.613711 -7.133686
LeftArm 35.650427 9.310131 -75.573574
LeftForeArm 16.499899 -0.000000 30.493539
LeftHand -13.159625 -0.000000 -6.939438
LeftHandThumb1 -26.253704 0.000000 33.147579
Head 13.750789 1.208516 8.935351
3618
root 1.814725 36.910244 4.031516 6.126991 -8.467189 1.713038
RightUpLeg 4.161597 -0.131624 -1.825192
RightLeg -5.689588 -0.000000 0.000000
RightFoot -14.322254 -16.418371 15.157903
RightToeBase 12.098854 -0.000000 -0.000000
LeftUpLeg 3.912278 6.854711 2.164729
LeftLeg -3.613126 -0.000000 0.000000
LeftFoot -10.849848 12.937891 -19.238154
LeftToeBase 6.499637 -0.000000 -0.000000
Spine -8.516751 -19.560265 1.568125
RightShoulder -6.766244 -33.052593 -5.549787
RightArm 17.069183 -30.376740 69.825909
RightForeArm 82.636088 0.000000 103.294187
RightHand -9.301668 0.000000 -17.001223
RightHandThumb1 -24.326973 -0.000000 -32.862282
LeftShoulder -28.017679 41.619594 -7.047533
LeftArm 35.671175 9.240131 -75.533570
LeftForeArm 16.558909 -0.000000 30.540415
LeftHand -13.226933 -0.000000 -7.034094
LeftHandThumb1 -26.253704 0.000000 33.147579
Head 13.758746 1.050323 8.950699
3619
root 1.815056 36.910256 4.026975 6.103070 -8.283054 1.758067
RightUpLeg 4.190893 -0.216004 -1.847610
RightLeg -5.673495 -0.000000 0.000000
RightFoot -14.345994 -16.522754 15.125556
RightToeBase 11.962323 -0.000000 -0.000000
LeftUpLeg 3.862358 6.752373 2.137525
LeftLeg -3.551280 -0.000000 0.000000
LeftFoot -10.840008 12.883965 -19.213307
LeftToeBase 6.533809 -0.000000 -0.000000
Spine -8.477488 -19.561329 1.468844
RightShoulder -6.609942 -33.091058 -5.479713
RightArm 16.926257 -30.410000 69.916955
RightForeArm 82.544800 -0.000000 103.302138
RightHand -9.454851 -0.000000 -16.888378
RightHandThumb1 -24.326973 -0.000000 -32.862282
LeftShoulder -27.918739 41.602818 -6.900101
LeftArm 35.658067 9.175570 -75.560899
LeftForeArm 16.704012 -0.000000 30.539127
LeftHand -13.234900 -0.000000 -7.178071
LeftHandThumb1 -26.253704 0.000000 33.147579
Head 13.699399 0.782068 8.896677
